<?xml version="1.0" encoding="utf-8"?>
<!-- Generator: Adobe Illustrator 19.0.0, SVG Export Plug-In . SVG Version: 6.00 Build 0)  -->
<svg version="1.1" id="图层_1" xmlns="http://www.w3.org/2000/svg" x="0px" y="0px"
     viewBox="0 0 2000 2000" style="enable-background:new 0 0 2000 2000;" xml:space="preserve">
<style type="text/css">
	.st0{fill:#17BFEE;}
	.st1{fill:#A4E6F8;}
	.st2{fill:#57D1F3;}
	.st3{fill:#FEFEFE;}
	.st4{fill:#29C4EF;}
	.st5{fill:#4BCDF2;}
</style>
    <g>
	<path class="st0" d="M992,745c6,0,12,0,18,0c16.3,0.6,30.3,7.9,44.4,15c24.7,12.4,49,25.5,74.8,35.8c28.7,11.4,58.2,20.2,88.3,26.9
		c1.8,0.4,3.6,0.9,5.3,1.4c3.4,1,5.3,3.2,5.3,6.9c0.3,17-0.2,33.9-1.5,50.9c-1.4,17.6-3.4,35.1-6.4,52.5
		c-5.4,31.8-13.7,62.7-25.2,92.9c-13.9,36.6-32,71-54.5,103c-13,18.5-27.2,36.2-43.1,52.4c-23,23.4-47.4,45.4-75.3,63
		c-3.8,2.4-7.7,4.6-11.5,7c-5.8,3.7-11.7,4-17.9,0.8c-17.8-9-33.8-20.6-49.5-32.7c-13.7-10.6-26.6-22.3-38.6-34.7
		c-25.3-26-47.2-54.6-65.3-86.1c-16.3-28.3-29.4-57.9-39.5-88.9c-10.1-31.1-17-63-21.2-95.4c-3.4-26.4-5.3-53-4.9-79.6
		c0.2-10.3,0.4-10.9,10.3-13.2c21.8-5,43.4-10.6,64.4-18c19.3-6.8,38.4-14.3,56.7-23.5c14.2-7.1,28.3-14.1,42.4-21.3
		C961.6,752.8,975.7,745.6,992,745z"/>
        <path class="st1" d="M746.1,880.9c-0.3,0.8-0.7,0.8-1.1,0.1"/>
        <path class="st2" d="M745,881c0.4,0,0.7,0,1.1-0.1c0,1.8,1,3.7-1.1,5.1"/>
        <path class="st3" d="M1004.1,1021.9c0-0.8,0.1-1.7,0.1-2.5c0-17,0-33.9-0.3-50.9c-0.5-28-0.5-55.9-1-83.9
		c-0.1-6.1-1.5-12.2-0.3-18.4c0.3-1.5-0.1-2.8-1.8-2.9c-1.8-0.2-2.7,1.2-3,2.8c-0.8,4.1-1.5,8.2-2.2,12.3
		c-4.8,29.7-9.9,59.3-14.4,89.1c-1.9,12.7-5.1,25.1-6.8,37.8c-0.2,1.4-0.7,2.7-1.5,5.6c-3.1-6.9-5.5-12.4-8-18
		c-1.5-3.5-3-7-4.6-10.5c-0.5-1.1-0.7-2.9-2.5-2.7c-1.5,0.1-2,1.7-2.4,2.9c-1.7,5.2-3.2,10.4-4.9,16c-2.2-1.3-2.1-3.2-2.6-4.8
		c-3-10.1-5.9-20.2-8.9-30.2c-0.6-1.9-0.2-5-3.2-4.9c-2.7,0.1-2.5,3.1-3.2,5.1c-0.2,0.5-0.4,0.9-0.6,1.4c-1.9,3.8-1.4,8.4-4.2,11.8
		c-4.3,2.5-9.1,1.2-13.7,1.3c-22,0.2-44,0.1-65.9,0.1c-11.3,0-11.3,0-11.3-11.1c0-12.7,0.1-25.3-0.1-38c-0.1-3.6,1.1-4.4,4.5-4.4
		c33.5,0.1,67,0,100.5,0.2c3.3,0,4.9-0.2,4.9-4.4c-0.2-33.5,0.2-67-0.1-100.4c0-5.3,1.5-6.2,6.4-6.2c31.3,0.2,62.7,0.2,94,0
		c4.2,0,5.2,1.2,5.2,5.3c-0.2,32.7-0.3,65.3-0.2,98c0,10.3-0.8,8.6,8.9,8.7c32.7,0.1,65.3,0.1,98-0.1c4.2,0,5.2,1.2,5.2,5.3
		c-0.3,14.2-0.2,28.3,0,42.5c0.1,3.8-1.1,4.8-4.8,4.8c-36.8-0.1-73.6,0-110.5,0.1c-2.5,0-4-0.9-5.3-2.9c-2.6-4.2-5.4-8.4-8.2-12.6
		c-0.9-1.3-1.3-3.5-3.4-3.2c-2.2,0.3-2.3,2.6-2.7,4.3c-3.1,12.1-6.2,24.2-9.3,36.2c-1,3.9-2,7.7-3,11.6c-3.1,11.7-6.1,23.5-9.2,35.3
		c-0.3,1.3-0.6,3.1-2.2,2.8c-1.8-0.3-1-2.2-1-3.3C1004.2,1038.4,1005,1030.1,1004.1,1021.9z"/>
        <path class="st3" d="M945.7,1031c0-1,0-2,0.1-3c-2.2,0.2-3.8-1.4-5.8-1.9c-32.3,0-64.6-0.2-96.9,0.1c-5,0-6.4-1.2-6.2-6.2
		c0.4-11,0.3-22,0.1-33c-0.1-3.5,0.7-4.9,4.6-4.9c17.6,0.2,35.3-0.4,52.9,0.3c10.3,0.4,20.6-1.1,30.9-0.1c5.1,0.5,7.3-1.4,8.2-6.1
		c0.2-1.4,0.4-3,2-3.9c2,1.2,1.8,3.5,2.3,5.3c3.1,10.4,5.9,20.8,8.9,31.2c0.4,1.6,0.6,3.6,2.7,3.7c2.3,0.1,2.9-1.9,3.4-3.7
		c1.3-4.7,2.5-9.3,3.7-14c0.2-0.9,0.2-2.2,1.3-2.5c1.6-0.4,1.8,1.2,2.2,2.2c3.9,8.1,7.7,16.3,11.5,24.4c0.7,1.4,0.9,3.7,3,3.4
		c2.1-0.3,1.7-2.6,2-4.1c4.8-28.1,9.5-56.1,14.2-84.2c1.6-9.7,3.4-19.3,5.2-29c0.8-1,1.7-2.1,2.5,0c0,0.7,0-0.2,0,0.5
		c-0.7,33.4,0.8,66.8,1.3,100.2c0.3,20.2,0.3,40.5,0.7,60.7c0,2.1,0.2,4,1.5,5.6c4.1,1.1,4.8-2,5.5-4.7c3.1-11.9,6.2-23.8,9-35.8
		c4.5-19.1,9.3-38.1,14.5-57c0.4-1.6,1-3.1,1.6-5.2c3.5,2.5,4.9,6,6.7,8.9c1.9,3,4.1,4.3,7.7,4.3c37.2-0.2,74.3-0.1,111.5-0.3
		c4.4,0,5.7,1.1,5.5,5.5c-0.3,11.3-0.4,22.7,0,34c0.2,4.9-1.6,5.6-5.9,5.6c-33.2-0.2-66.3-0.2-99.5-0.3c-6.2,0-6.7,0.5-6.7,6.8
		c0,33.2,0,66.3,0.2,99.5c0,3.8-1,4.7-4.7,4.7c-33.8-0.1-67.7-0.1-101.5-0.1c-0.8-1-0.6-2.2-0.6-3.4c0-33.9,0-67.8,0-101.6
		C945.5,1032.3,945.6,1031.7,945.7,1031z"/>
        <path class="st4" d="M945.7,1031c0,33.8,0.1,67.6,0.1,101.5c0,1.8,0.1,3.7,0.2,5.5c-1.4-1.5-1.1-3.4-1.1-5.2c0-32.3,0-64.6,0-96.9
		C945,1034.2,944.8,1032.5,945.7,1031z"/>
        <path class="st5" d="M1004.1,1021.9c1.5,8.8,0.6,17.8,1.8,26.8c4.8-11.9,6.1-24.9,11-36.8c0.8,3.5-1.1,6.5-1.9,9.7
		c-2.5,9.7-5.1,19.3-7.7,29c-0.3,1.2-0.2,3.1-2.1,2.7c-1.4-0.3-1.2-1.8-1.2-3C1004,1040.8,1004.1,1031.3,1004.1,1021.9z"/>
        <path class="st4" d="M940,1026.2c2.2-0.1,4.3-0.1,5.8,1.9C943.1,1029.8,941.7,1027.6,940,1026.2z"/>
</g>
</svg>
